<?xml version="1.0" encoding="UTF-8"?>
<svg id="Layer_1" data-name="Layer 1" xmlns="http://www.w3.org/2000/svg" version="1.1" viewBox="0 0 728 694.4">
  <defs>
    <style>
      .cls-1 {
        fill: #ccb364;
        stroke: #231f20;
        stroke-miterlimit: 10;
        stroke-width: 10px;
      }
    </style>
  </defs>
  <path class="cls-1" d="M568.76,288.71c-12.17,0-23.08,7.57-27.37,18.97l-56.62,150.94-92.64-324.19c-3.46-12.03-14.14-20.54-26.65-21.2-12.17-.74-24,6.77-28.65,18.37l-97.67,244.18-56.53-75.36c-5.51-7.37-14.2-11.71-23.4-11.71H42.23c-16.16,0-29.25,13.1-29.25,29.25h0c0,16.16,13.1,29.25,29.25,29.25h102.38l78.98,105.29c6.31,8.46,16.68,12.85,27.22,11.48,10.48-1.43,19.4-8.34,23.34-18.17l85.21-213.07,93.52,327.28c3.43,12.11,14.34,20.68,26.91,21.2h1.2c12.18,0,23.08-7.56,27.36-18.96l80.67-215.05h96.72c16.16,0,29.25-13.1,29.25-29.25h0c0-16.16-13.1-29.25-29.25-29.25h-117.01Z"/>
</svg>